<?xml version="1.0" encoding="UTF-8" standalone="no"?>
<!DOCTYPE svg PUBLIC "-//W3C//DTD SVG 1.1//EN" "http://www.w3.org/Graphics/SVG/1.1/DTD/svg11.dtd">
<svg width="100%" height="100%" viewBox="0 0 444 509" version="1.1" xmlns="http://www.w3.org/2000/svg" xmlns:xlink="http://www.w3.org/1999/xlink" xml:space="preserve" xmlns:serif="http://www.serif.com/" style="fill-rule:evenodd;clip-rule:evenodd;stroke-linecap:round;stroke-linejoin:round;stroke-miterlimit:1.5;">
    <g transform="matrix(1,0,0,1,0,-614)">
        <g id="Artboard2" transform="matrix(0.588268,0,0,0.54684,710.155,277.919)">
            <rect x="-1207.2" y="614.588" width="753.553" height="930.554" style="fill:none;"/>
            <g transform="matrix(1.69991,0,0,1.42317,603.86,-627.608)">
                <g transform="matrix(1.07066e-16,0.803724,-0.882815,-6.39726e-17,-460.998,752.49)">
                    <path d="M609.656,417.532C609.656,408.466 599.268,401.106 586.472,401.106C586.472,401.106 327.973,399.475 256.863,404.79C223.267,407.302 158.68,413.775 159.81,433C161.182,456.338 227.544,458.244 263.116,461.063C334.227,466.699 586.472,466.811 586.472,466.811C599.268,466.811 609.656,459.451 609.656,450.385L609.656,417.532Z" style="fill:rgb(62,190,31);"/>
                    <clipPath id="_clip1">
                        <path d="M609.656,417.532C609.656,408.466 599.268,401.106 586.472,401.106C586.472,401.106 327.973,399.475 256.863,404.79C223.267,407.302 158.68,413.775 159.81,433C161.182,456.338 227.544,458.244 263.116,461.063C334.227,466.699 586.472,466.811 586.472,466.811C599.268,466.811 609.656,459.451 609.656,450.385L609.656,417.532Z"/>
                    </clipPath>
                    <g clip-path="url(#_clip1)">
                        <g transform="matrix(-3.55362,-4.18891e-16,6.5045e-16,-0.779699,2057.73,1288.59)">
                            <path d="M501.307,1096.25C501.154,1071.45 465.822,1074.94 461.529,1074.94L398.777,1047.96C394.483,1047.96 390.998,1059.22 390.998,1073.08L390.998,1123.32C390.998,1137.18 394.483,1148.44 398.777,1148.44L459.449,1122.09C463.742,1122.09 501.459,1120.87 501.307,1096.25Z" style="fill:rgb(56,147,34);"/>
                        </g>
                        <g transform="matrix(-9.01608e-17,-1.13274,1.59874,1.93892e-16,-1153.2,845.249)">
                            <path d="M342.442,905.847C342.442,905.847 348.121,839.862 364.538,840.186C379.317,840.477 386.166,902.608 388.069,906.829C389.972,911.05 390.61,866.597 388.069,854.941C385.528,843.285 369.131,822.187 369.131,822.187L353.814,827.619L341.91,871.065L342.442,905.847Z" style="fill:rgb(159,225,37);"/>
                        </g>
                    </g>
                    <path d="M609.656,417.532C609.656,408.466 599.268,401.106 586.472,401.106C586.472,401.106 327.973,399.475 256.863,404.79C223.267,407.302 158.68,413.775 159.81,433C161.182,456.338 227.544,458.244 263.116,461.063C334.227,466.699 586.472,466.811 586.472,466.811C599.268,466.811 609.656,459.451 609.656,450.385L609.656,417.532Z" style="fill:none;stroke:black;stroke-width:10.89px;"/>
                </g>
                <g transform="matrix(-0.349432,0.449001,-0.624244,-0.802119,-389.176,1215.27)">
                    <path d="M634.023,351.939C634.023,342.873 584.341,351.102 568.146,351.102C445.872,370.793 312.247,401.502 178.568,405.384C162.373,405.384 151.112,411.721 151.057,419.719C151.009,426.65 170.842,439.616 208.579,445.942C246.443,452.29 334.744,450.275 403.167,441.464C459.308,434.234 527.208,416.858 588.218,407.493C604.414,407.493 588.218,416.559 588.218,407.493L634.023,351.939Z" style="fill:rgb(62,190,31);"/>
                    <clipPath id="_clip2">
                        <path d="M634.023,351.939C634.023,342.873 584.341,351.102 568.146,351.102C445.872,370.793 312.247,401.502 178.568,405.384C162.373,405.384 151.112,411.721 151.057,419.719C151.009,426.65 170.842,439.616 208.579,445.942C246.443,452.29 334.744,450.275 403.167,441.464C459.308,434.234 527.208,416.858 588.218,407.493C604.414,407.493 588.218,416.559 588.218,407.493L634.023,351.939Z"/>
                    </clipPath>
                    <g clip-path="url(#_clip2)">
                        <g transform="matrix(-4.62626,-0.120335,0.0646551,-0.778858,2390.73,1269.93)">
                            <path d="M469.128,1081.84C469.128,1067.98 473.47,1035.72 466.211,1033.1C448.622,1026.73 436.577,1051.55 407.664,1072.59C403.494,1072.59 390.998,1059.22 390.998,1073.08L390.998,1123.32C390.998,1137.18 394.383,1148.44 398.553,1148.44L471.551,1148.44C475.72,1148.44 479.106,1137.18 479.106,1123.32L469.128,1081.84Z" style="fill:rgb(56,147,34);"/>
                        </g>
                        <g transform="matrix(1.43089,0.800968,1.43089,-0.800968,-1454.09,1053.46)">
                            <path d="M149.236,946.776C149.236,946.776 132.296,969.078 159.041,968.279C187.3,967.434 230.235,997.999 264.906,1049.24C293.141,1090.96 317.435,1159.55 319.344,1159.1L376.776,1061.36L231.412,946.776L149.236,946.776Z" style="fill:rgb(159,225,37);"/>
                        </g>
                    </g>
                    <path d="M634.023,351.939C634.023,342.873 584.341,351.102 568.146,351.102C445.872,370.793 312.247,401.502 178.568,405.384C162.373,405.384 151.112,411.721 151.057,419.719C151.009,426.65 170.842,439.616 208.579,445.942C246.443,452.29 334.744,450.275 403.167,441.464C459.308,434.234 527.208,416.858 588.218,407.493C604.414,407.493 588.218,416.559 588.218,407.493L634.023,351.939Z" style="fill:none;stroke:black;stroke-width:11.65px;"/>
                </g>
                <g transform="matrix(0.41189,0.529256,0.624244,-0.802119,-1309.58,1202.93)">
                    <path d="M616.095,364.005C616.095,354.939 604.94,347.579 591.2,347.579C516.353,364.649 445.883,377.284 379.284,385.996C308.18,395.297 244.7,400.662 181.806,401.642C168.066,401.642 152.95,408.319 155.762,418.864C159.198,431.752 183.982,439.904 224.901,444.847C264.906,449.68 329.91,453.234 397.46,443.9C463.278,434.805 612.798,385.985 605.289,379.588C619.029,379.588 616.095,405.924 616.095,396.858L616.095,364.005Z" style="fill:rgb(62,190,31);"/>
                    <clipPath id="_clip3">
                        <path d="M616.095,364.005C616.095,354.939 604.94,347.579 591.2,347.579C516.353,364.649 445.883,377.284 379.284,385.996C308.18,395.297 244.7,400.662 181.806,401.642C168.066,401.642 152.95,408.319 155.762,418.864C159.198,431.752 183.982,439.904 224.901,444.847C264.906,449.68 329.91,453.234 397.46,443.9C463.278,434.805 612.798,385.985 605.289,379.588C619.029,379.588 616.095,405.924 616.095,396.858L616.095,364.005Z"/>
                    </clipPath>
                    <g clip-path="url(#_clip3)">
                        <g transform="matrix(1.21391,0.800968,1.21391,-0.800968,-1195.65,1056.03)">
                            <path d="M149.236,946.776C149.236,946.776 132.296,969.078 159.041,968.279C187.3,967.434 230.235,997.999 264.906,1049.24C293.141,1090.96 317.435,1159.55 319.344,1159.1L376.776,1061.36L231.412,946.776L149.236,946.776Z" style="fill:rgb(159,225,37);"/>
                        </g>
                        <g transform="matrix(-3.4027,-0.119685,-0.0629029,0.778593,1986.31,-440.611)">
                            <path d="M479.106,1073.08C479.106,1059.22 475.202,1047.96 470.395,1047.96L399.709,1047.96C394.901,1047.96 390.998,1059.22 390.998,1073.08L390.998,1123.32C390.998,1137.18 386.19,1115.51 390.998,1115.51C415.912,1138.71 451.542,1189.53 473.848,1168C479.279,1162.76 479.761,1152.24 479.761,1138.37L479.106,1073.08Z" style="fill:rgb(56,147,34);"/>
                        </g>
                    </g>
                    <path d="M616.095,364.005C616.095,354.939 604.94,347.579 591.2,347.579C516.353,364.649 445.883,377.284 379.284,385.996C308.18,395.297 244.7,400.662 181.806,401.642C168.066,401.642 152.95,408.319 155.762,418.864C159.198,431.752 183.982,439.904 224.901,444.847C264.906,449.68 329.91,453.234 397.46,443.9C463.278,434.805 612.798,385.985 605.289,379.588C619.029,379.588 616.095,405.924 616.095,396.858L616.095,364.005Z" style="fill:none;stroke:black;stroke-width:11.14px;"/>
                </g>
                <g transform="matrix(-0.451741,0.33513,0.441407,0.982391,-760.249,557.852)">
                    <path d="M677.988,491.865C677.988,482.799 665.531,475.439 650.187,475.439C384.504,413.019 304.667,413.304 230.489,422.329C144.396,432.803 153.699,450.385 153.699,450.385C153.699,459.451 170.998,464.778 186.341,464.778C314.859,465.298 486.532,485.768 632.674,544.66C661.79,556.393 710.032,626.926 722.74,625.006C735.448,623.087 677.988,533.784 677.988,524.718L677.988,491.865Z" style="fill:rgb(62,190,31);"/>
                    <clipPath id="_clip4">
                        <path d="M677.988,491.865C677.988,482.799 665.531,475.439 650.187,475.439C384.504,413.019 304.667,413.304 230.489,422.329C144.396,432.803 153.699,450.385 153.699,450.385C153.699,459.451 170.998,464.778 186.341,464.778C314.859,465.298 486.532,485.768 632.674,544.66C661.79,556.393 710.032,626.926 722.74,625.006C735.448,623.087 677.988,533.784 677.988,524.718L677.988,491.865Z"/>
                    </clipPath>
                    <g clip-path="url(#_clip4)">
                        <g transform="matrix(-4.3875,-0.00411216,-0.00209315,0.779698,2433.76,-345.184)">
                            <path d="M482.577,1063.94C482.577,1050.08 478.776,1041.22 474.183,1037.03C452.183,1016.96 429.827,1070.72 403.222,1090.28C399.053,1090.28 390.998,1059.22 390.998,1073.08L390.998,1123.32C390.998,1137.18 394.383,1148.44 398.553,1148.44L471.551,1148.44C475.72,1148.44 479.106,1137.18 479.106,1123.32L482.577,1063.94Z" style="fill:rgb(56,147,34);"/>
                        </g>
                        <g transform="matrix(1.66024,-0.56637,0.958542,0.980982,-1035.96,-391.941)">
                            <path d="M149.236,946.776C149.236,946.776 142.766,963.757 169.511,962.958C197.77,962.113 221.814,963.742 270.362,1002.09C317.827,1039.58 390.166,1118.29 388.069,1125.9L376.776,1061.36L231.412,946.776L149.236,946.776Z" style="fill:rgb(159,225,37);"/>
                        </g>
                    </g>
                    <path d="M677.988,491.865C677.988,482.799 665.531,475.439 650.187,475.439C384.504,413.019 304.667,413.304 230.489,422.329C144.396,432.803 153.699,450.385 153.699,450.385C153.699,459.451 170.998,464.778 186.341,464.778C314.859,465.298 486.532,485.768 632.674,544.66C661.79,556.393 710.032,626.926 722.74,625.006C735.448,623.087 677.988,533.784 677.988,524.718L677.988,491.865Z" style="fill:none;stroke:black;stroke-width:11.49px;"/>
                </g>
                <g transform="matrix(1,0,0,1.28494,0.803229,-174.368)">
                    <path d="M-877.12,1145.11C-870.38,1158.42 -868.031,1210.27 -869.641,1248.45C-870.328,1264.73 -876.744,1276.43 -873.909,1292.29C-872.091,1302.46 -862.564,1311.71 -853.089,1314.75C-845.275,1317.26 -827.902,1317.56 -827.902,1317.56C-817.538,1316.74 -804.171,1308.68 -802.357,1296.13C-798.346,1268.38 -808.037,1265.28 -808.881,1245.39C-810.492,1207.42 -808.53,1163.25 -814.873,1136.3C-822.77,1102.75 -867.296,1047.73 -867.296,1047.73C-909.967,1000.12 -969.604,969.784 -1003.85,961.965C-1020.8,958.096 -1049.16,951.94 -1056.34,961.965C-1060.32,967.523 -1059.6,975.493 -1052.67,979.495C-972.554,1009.5 -896.137,1086.95 -877.12,1145.11Z" style="fill:rgb(62,190,31);"/>
                    <clipPath id="_clip5">
                        <path d="M-877.12,1145.11C-870.38,1158.42 -868.031,1210.27 -869.641,1248.45C-870.328,1264.73 -876.744,1276.43 -873.909,1292.29C-872.091,1302.46 -862.564,1311.71 -853.089,1314.75C-845.275,1317.26 -827.902,1317.56 -827.902,1317.56C-817.538,1316.74 -804.171,1308.68 -802.357,1296.13C-798.346,1268.38 -808.037,1265.28 -808.881,1245.39C-810.492,1207.42 -808.53,1163.25 -814.873,1136.3C-822.77,1102.75 -867.296,1047.73 -867.296,1047.73C-909.967,1000.12 -969.604,969.784 -1003.85,961.965C-1020.8,958.096 -1049.16,951.94 -1056.34,961.965C-1060.32,967.523 -1059.6,975.493 -1052.67,979.495C-972.554,1009.5 -896.137,1086.95 -877.12,1145.11Z"/>
                    </clipPath>
                    <g clip-path="url(#_clip5)">
                        <g transform="matrix(1.56182,-1.11022e-16,0,1.28264,-1433.61,-372.387)">
                            <rect x="334.091" y="1139.36" width="67.469" height="178.179" style="fill:url(#_Linear6);"/>
                        </g>
                        <g transform="matrix(1,0,0,1,-1208,0)">
                            <path d="M149.236,946.776C149.236,946.776 137.31,968.661 164.055,967.861C192.314,967.017 246.384,985.851 294.933,1024.2C342.397,1061.69 386.16,1126.35 388.069,1125.9L376.776,1061.36L231.412,946.776L149.236,946.776Z" style="fill:rgb(159,225,37);"/>
                        </g>
                    </g>
                    <path d="M-877.12,1145.11C-870.38,1158.42 -868.031,1210.27 -869.641,1248.45C-870.328,1264.73 -876.744,1276.43 -873.909,1292.29C-872.091,1302.46 -862.564,1311.71 -853.089,1314.75C-845.275,1317.26 -827.902,1317.56 -827.902,1317.56C-817.538,1316.74 -804.171,1308.68 -802.357,1296.13C-798.346,1268.38 -808.037,1265.28 -808.881,1245.39C-810.492,1207.42 -808.53,1163.25 -814.873,1136.3C-822.77,1102.75 -867.296,1047.73 -867.296,1047.73C-909.967,1000.12 -969.604,969.784 -1003.85,961.965C-1020.8,958.096 -1049.16,951.94 -1056.34,961.965C-1060.32,967.523 -1059.6,975.493 -1052.67,979.495C-972.554,1009.5 -896.137,1086.95 -877.12,1145.11Z" style="fill:none;stroke:rgb(36,47,131);stroke-width:8.33px;"/>
                </g>
                <g transform="matrix(2.35115,3.14749,-0.817561,1.00833,-1030.19,-1116.11)">
                    <path d="M470.57,1116.95C462.425,1121.12 448.511,1065.68 435.435,1033.49C429.11,1022.77 416.426,1005.97 389.821,1025.53C385.716,1028.55 377.975,1042.62 390.536,1037.51C392.171,1036.84 395.314,1036.79 397.645,1035.15L410.521,1034.81C416.195,1033.7 428.212,1046.04 430.537,1050.48C438.933,1066.5 452.695,1108.91 460.936,1134.51L469.381,1139.63C471.795,1139.63 476.82,1125.28 478.238,1114.55C479.269,1106.74 477.058,1103.11 477.058,1097.27C477.058,1097.27 475.543,1114.41 470.57,1116.95Z" style="fill:rgb(56,147,34);"/>
                    <clipPath id="_clip7">
                        <path d="M470.57,1116.95C462.425,1121.12 448.511,1065.68 435.435,1033.49C429.11,1022.77 416.426,1005.97 389.821,1025.53C385.716,1028.55 377.975,1042.62 390.536,1037.51C392.171,1036.84 395.314,1036.79 397.645,1035.15L410.521,1034.81C416.195,1033.7 428.212,1046.04 430.537,1050.48C438.933,1066.5 452.695,1108.91 460.936,1134.51L469.381,1139.63C471.795,1139.63 476.82,1125.28 478.238,1114.55C479.269,1106.74 477.058,1103.11 477.058,1097.27C477.058,1097.27 475.543,1114.41 470.57,1116.95Z"/>
                    </clipPath>
                    <g clip-path="url(#_clip7)">
                        <g transform="matrix(0.318534,-0.994299,0.272539,0.783771,-5.50841,476.614)">
                            <rect x="334.091" y="1139.36" width="67.469" height="178.179" style="fill:url(#_Linear8);"/>
                        </g>
                    </g>
                </g>
                <g transform="matrix(1,0,0,1.28494,0.803229,-174.368)">
                    <path d="M-877.12,1145.11C-870.38,1158.42 -868.031,1210.27 -869.641,1248.45C-870.328,1264.73 -876.744,1276.43 -873.909,1292.29C-872.091,1302.46 -862.564,1311.71 -853.089,1314.75C-845.275,1317.26 -827.902,1317.56 -827.902,1317.56C-817.538,1316.74 -804.171,1308.68 -802.357,1296.13C-798.346,1268.38 -808.037,1265.28 -808.881,1245.39C-810.492,1207.42 -808.53,1163.25 -814.873,1136.3C-822.77,1102.75 -867.296,1047.73 -867.296,1047.73C-909.967,1000.12 -969.604,969.784 -1003.85,961.965C-1020.8,958.096 -1049.16,951.94 -1056.34,961.965C-1060.32,967.523 -1059.6,975.493 -1052.67,979.495C-972.554,1009.5 -896.137,1086.95 -877.12,1145.11Z" style="fill:rgb(62,190,31);fill-opacity:0;stroke:black;stroke-width:8.33px;"/>
                </g>
            </g>
        </g>
    </g>
    <defs>
        <linearGradient id="_Linear6" x1="0" y1="0" x2="1" y2="0" gradientUnits="userSpaceOnUse" gradientTransform="matrix(-12.2252,-40.5426,33.2954,-14.8862,374.836,1187.39)"><stop offset="0" style="stop-color:rgb(230,230,230);stop-opacity:1"/><stop offset="1" style="stop-color:rgb(230,230,230);stop-opacity:0"/></linearGradient>
        <linearGradient id="_Linear8" x1="0" y1="0" x2="1" y2="0" gradientUnits="userSpaceOnUse" gradientTransform="matrix(-12.2252,-40.5426,33.2954,-14.8862,374.836,1187.39)"><stop offset="0" style="stop-color:rgb(151,181,200);stop-opacity:1"/><stop offset="1" style="stop-color:rgb(151,181,200);stop-opacity:0"/></linearGradient>
    </defs>
</svg>
